<?xml version="1.0" encoding="UTF-8"?>
<svg width="58px" height="58px" viewBox="0 0 58 58" version="1.1" xmlns="http://www.w3.org/2000/svg" xmlns:xlink="http://www.w3.org/1999/xlink">
    <!-- Generator: Sketch 43.1 (39012) - http://www.bohemiancoding.com/sketch -->
    <title>Page 1</title>
    <desc>Created with Sketch.</desc>
    <defs>
        <polygon id="path-1" points="57.5597705 57.5284081 57.5597705 0.436650407 9.50819672e-05 0.436650407 9.50819672e-05 57.5284081"></polygon>
    </defs>
    <g id="Page-1" stroke="none" stroke-width="1" fill="none" fill-rule="evenodd">
        <g id="HOME" transform="translate(-680.000000, -2804.000000)">
            <g id="Page-1" transform="translate(680.000000, 2804.000000)">
                <g id="Group-3" transform="translate(0.000000, 0.034894)">
                    <mask id="mask-2" fill="white">
                        <use xlink:href="#path-1"></use>
                    </mask>
                    <g id="Clip-2"></g>
                    <path d="M52.3270295,49.7432049 C52.3270295,51.1771724 51.1560951,52.3381154 49.7108492,52.3381154 L7.84911148,52.3381154 C6.40339016,52.3381154 5.23293115,51.1771724 5.23293115,49.7432049 L5.23293115,8.2218065 C5.23293115,6.78831057 6.40339016,5.62689593 7.84911148,5.62689593 L49.7108492,5.62689593 C51.1560951,5.62689593 52.3270295,6.78831057 52.3270295,8.2218065 L52.3270295,49.7432049 Z M49.7108492,0.436603252 L7.84911148,0.436603252 C3.51242295,0.436603252 9.50819672e-05,3.92037561 9.50819672e-05,8.2218065 L9.50819672e-05,49.7432049 C9.50819672e-05,54.0446358 3.51242295,57.5284081 7.84911148,57.5284081 L49.7108492,57.5284081 C54.0470623,57.5284081 57.5598656,54.0446358 57.5598656,49.7432049 L57.5598656,8.2218065 C57.5598656,3.92037561 54.0470623,0.436603252 49.7108492,0.436603252 L49.7108492,0.436603252 Z" id="Fill-1" fill="#FFFFFF" mask="url(#mask-2)"></path>
                </g>
                <path d="M21.9853279,33.0660829 C21.9415902,32.9453675 21.839377,32.6633837 21.4747377,32.4823106 L17.4546721,30.436278 L21.6102295,28.3459203 C21.868377,28.2176602 22.1236721,27.9304894 22.0723279,27.5117577 C22.1018033,27.3358715 22.0737541,27.1100016 21.8864426,26.8515951 L21.8864426,25.2912537 C21.8864426,25.0446358 21.7571311,24.8159366 21.544623,24.6872049 C21.3325902,24.5589447 21.0682623,24.5495138 20.8462459,24.6626846 L11.813459,29.2800504 C11.5762295,29.4012374 11.4274262,29.6440829 11.4274262,29.9086195 L11.4274262,30.915839 C11.4274262,31.1803756 11.5762295,31.4232211 11.813459,31.5444081 L20.8462459,36.161774 C20.9494098,36.214587 21.0616066,36.240522 21.1733279,36.240522 C21.3021639,36.240522 21.431,36.2060992 21.544623,36.1372537 C21.7571311,36.008522 21.8864426,35.7798228 21.8864426,35.5332049 L21.8864426,33.9799366 C22.1968852,33.5626195 22.077082,33.2183919 21.9853279,33.0660829" id="Fill-4" fill="#FFFFFF"></path>
                <path d="M34.8445934,21.5620423 C34.7119541,21.3682374 34.4908885,21.2517659 34.2546098,21.2517659 L33.2476918,21.2545951 C33.2101344,21.2465789 33.1735279,21.2291317 33.1383475,21.2154569 C32.9272656,21.1343512 32.4889377,20.9650667 32.0458557,21.2635545 C31.6707574,21.5158309 31.4744131,21.9694569 31.2856754,22.4636358 L24.5310525,39.6207902 C24.4454787,39.8381724 24.4735279,40.0838472 24.6066426,40.2767089 C24.739282,40.4700423 24.9598721,40.5850992 25.1952,40.5850992 L26.2339705,40.5850992 C26.7093803,40.5850992 27.0103148,40.250774 27.2294787,40.0060423 C27.2793967,39.9513431 27.3540361,39.8678797 27.3740033,39.8513756 L27.4248721,39.8202537 C27.6920525,39.6575707 28.0243639,39.454335 28.2083475,38.9549691 L34.9168557,22.2203187 C35.0043311,22.0029366 34.9772328,21.7563187 34.8445934,21.5620423" id="Fill-6" fill="#FFFFFF"></path>
                <path d="M46.2214836,29.2799089 L37.1886967,24.6625431 C36.9666803,24.5493724 36.7033033,24.5588033 36.4903197,24.687535 C36.2782869,24.8157951 36.1489754,25.0449659 36.1489754,25.2915837 L36.1489754,27.0452585 C36.1489754,27.5592423 36.5925328,27.7794537 36.8307131,27.8982829 C36.8497295,27.9077138 36.8687459,27.9166732 36.8868115,27.9256325 C37.0589098,28.1090634 37.2937623,28.2043154 37.5053197,28.2901366 C37.5542869,28.3099415 37.600877,28.3278602 37.6384344,28.346722 L41.9038115,30.4450959 L37.8609262,32.4717951 C37.8124344,32.4920715 37.7377951,32.5109333 37.6607787,32.5330959 C37.3636475,32.6184455 37.0798279,32.6995512 36.8853852,32.8999577 C36.8673197,32.9098602 36.8478279,32.9192911 36.8278607,32.9291935 C36.5906311,33.050852 36.1489754,33.2771935 36.1489754,33.7902341 L36.1489754,35.5330634 C36.1489754,35.7796813 36.2782869,36.008852 36.4903197,36.1371122 C36.604418,36.2059577 36.7327787,36.2403805 36.8620902,36.2403805 C36.9738115,36.2403805 37.0855328,36.2144455 37.1886967,36.1621041 L46.2214836,31.5447382 C46.4587131,31.4230797 46.6075164,31.1807057 46.6075164,30.9156976 L46.6075164,29.908478 C46.6075164,29.6439415 46.4587131,29.4010959 46.2214836,29.2799089" id="Fill-8" fill="#FFFFFF"></path>
            </g>
        </g>
    </g>
</svg>