<?xml version="1.0" encoding="UTF-8"?>
<svg width="61px" height="61px" viewBox="0 0 61 61" version="1.1" xmlns="http://www.w3.org/2000/svg" xmlns:xlink="http://www.w3.org/1999/xlink">
    <!-- Generator: Sketch 43.1 (39012) - http://www.bohemiancoding.com/sketch -->
    <title>Page 1</title>
    <desc>Created with Sketch.</desc>
    <defs>
        <polygon id="path-1" points="60.537 60.8049196 60.537 0.461519686 0.0001 0.461519686 0.0001 60.8049196"></polygon>
    </defs>
    <g id="Page-1" stroke="none" stroke-width="1" fill="none" fill-rule="evenodd">
        <g id="HOME" transform="translate(-280.000000, -2803.000000)">
            <g id="Page-1" transform="translate(280.000000, 2803.000000)">
                <g id="Group-3" transform="translate(0.000000, 0.036882)">
                    <mask id="mask-2" fill="white">
                        <use xlink:href="#path-1"></use>
                    </mask>
                    <g id="Clip-2"></g>
                    <path d="M55.0336,52.5763126 C55.0336,54.0919513 53.8021,55.3190155 52.2821,55.3190155 L8.2551,55.3190155 C6.7346,55.3190155 5.5036,54.0919513 5.5036,52.5763126 L5.5036,8.69007677 C5.5036,7.17493655 6.7346,5.94737393 8.2551,5.94737393 L52.2821,5.94737393 C53.8021,5.94737393 55.0336,7.17493655 55.0336,8.69007677 L55.0336,52.5763126 Z M52.2821,0.461469846 L8.2551,0.461469846 C3.6941,0.461469846 0.0001,4.1436593 0.0001,8.69007677 L0.0001,52.5763126 C0.0001,57.1227301 3.6941,60.8049196 8.2551,60.8049196 L52.2821,60.8049196 C56.8426,60.8049196 60.5371,57.1227301 60.5371,52.5763126 L60.5371,8.69007677 C60.5371,4.1436593 56.8426,0.461469846 52.2821,0.461469846 L52.2821,0.461469846 Z" id="Fill-1" fill="#FFFFFF" mask="url(#mask-2)"></path>
                </g>
                <path d="M42.9159,21.9423205 C41.8414,20.8712559 40.0989,20.8712559 39.0249,21.9423205 L27.3494,33.5794945 L21.5124,27.7611567 C20.4379,26.6900921 18.6954,26.6900921 17.6209,27.7611567 C16.5464,28.8322213 16.5464,30.5691501 17.6209,31.6407131 L25.4029,39.3973339 C26.4774,40.4683985 28.2199,40.4683985 29.2944,39.3973339 L42.9144,25.8208801 C43.9904,24.7503139 43.9904,23.0138835 42.9159,21.9423205" id="Fill-4" fill="#FFFFFF"></path>
            </g>
        </g>
    </g>
</svg>